<svg xmlns="http://www.w3.org/2000/svg" xmlns:xlink="http://www.w3.org/1999/xlink" xmlns:lucid="lucid" width="2878.47" height="1754.22"><g transform="translate(0 0)" lucid:page-tab-id="IDuf2cpCJC8K"><path d="M1240 46a6 6 0 0 1 6-6h537.23a6 6 0 0 1 6 6v1616.06a6 6 0 0 1-6 6H1246a6 6 0 0 1-6-6z" fill="#f2f3f5" fill-opacity=".2"/><path d="M1262.2 40.07h14.66m9.8 0h14.66m9.8 0h14.67m9.77 0h14.68m9.78 0h14.68m9.8-.02h14.67m9.8 0h14.67m9.78 0h14.68m9.78 0h14.68m9.8 0H1497m9.8 0h14.67m9.77-.02h14.68m9.78 0h14.68m9.8 0h14.67m9.8 0h14.67m9.78 0h14.68m9.78 0h14.68m9.8-.02h14.66m9.8 0h14.67m9.77 0h14.68m9.78 0h14.68m9.8 0h7.33l.94.07.92.22.86.35.8.5.72.6.6.72.5.8.36.88.22.9v7.47m0 9.96V77.4m0 9.95v14.93m0 9.95v14.93m0 9.95v14.93m0 9.95v14.93m0 9.96v14.93m0 9.94v14.92m0 9.95v14.94m0 9.95v14.92m0 9.95v14.92m0 9.94v14.93m0 9.95v14.93m0 9.95l.02 14.92m0 9.95v14.93m0 9.95v14.93m0 9.95v14.92m0 9.96v14.93m0 9.95v14.93m0 9.96v14.93m0 9.94v14.92m0 9.95v14.94m0 9.95v14.92m0 9.95v14.92m0 9.94v14.93m0 9.95v14.93m0 9.95v14.92m0 9.95v14.93m0 9.95v14.93m0 9.95v14.92m0 9.95v14.93m.02 9.95v14.93m0 9.96v14.92m0 9.96v14.92m0 9.95v14.94m0 9.95v14.92m0 9.95v14.92m0 9.94v14.93m0 9.95v14.93m0 9.95v14.92m0 9.95v14.93m0 9.95v14.93m0 9.95v14.92m0 9.95v14.93m0 9.95v14.93m0 9.96v14.92m0 9.95v14.93m0 9.95v14.94m0 9.95l.02 14.9m0 9.97v14.92m0 9.94v14.93m0 9.95v14.93m0 9.95v14.92m0 9.95V1371m0 9.95v14.93m0 9.95v14.92m0 9.95v14.93m0 9.95v14.93m0 9.96v14.92m0 9.95v14.93m0 9.95v14.94m0 9.95v14.9m0 9.96v14.93m0 9.94v14.93m0 9.95v14.92m0 9.96v7.46l-.06.94-.22.9-.36.88-.5.8-.6.72-.72.6-.8.5-.87.36-.93.22h-7.34m-9.78 0h-14.68m-9.78 0h-14.7m-9.78 0l-14.67.02m-9.8 0H1679m-9.78 0h-14.68m-9.78 0h-14.68m-9.8 0h-14.66m-9.8 0h-14.66m-9.8 0l-14.67.02m-9.78 0h-14.7m-9.77 0h-14.68m-9.8 0h-14.66m-9.8 0h-14.68m-9.78 0h-14.68m-9.78 0l-14.68.02m-9.8 0h-14.66m-9.8 0h-14.67m-9.78 0h-14.7m-9.77 0h-14.68m-9.8 0h-14.66m-9.8 0l-14.68.02m-9.78 0H1246l-.94-.08-.9-.22-.88-.36-.8-.5-.72-.6-.6-.7-.5-.82-.37-.87-.23-.9v-7.47m0-9.95v-14.92m0-9.95v-14.92m0-9.95v-14.93m0-9.95v-14.92m0-9.95v-14.93m0-9.95v-14.93m0-9.95v-14.92m0-9.95v-14.93m0-9.95v-14.93m0-9.95v-14.93m0-9.96v-14.9m0-9.96V1357m0-9.94v-14.93m0-9.95v-14.92m0-9.95v-14.92m0-9.95v-14.93m-.02-9.95v-14.92m0-9.95v-14.93m0-9.95v-14.93m0-9.95V1158m0-9.95v-14.93m0-9.95v-14.93m0-9.95v-14.93m0-9.95v-14.93m0-9.96v-14.93m0-9.94v-14.92m0-9.96v-14.92m0-9.95V959m0-9.95V934.1m0-9.95v-14.92m0-9.95v-14.93m0-9.95v-14.93m0-9.95V834.6m0-9.95l-.02-14.93m0-9.95v-14.93m0-9.95v-14.93m0-9.95V735.1m0-9.96V710.2m0-9.94v-14.92m0-9.95v-14.94m0-9.95V635.6m0-9.95V610.7m0-9.95v-14.92m0-9.95v-14.93m0-9.95v-14.93m0-9.95V511.2m0-9.95v-14.93m0-9.95v-14.93m0-9.95v-14.93m0-9.95V411.7m0-9.96V386.8m0-9.94l-.02-14.92m0-9.95v-14.94m0-9.95V312.2m0-9.95V287.3m0-9.95v-14.92m0-9.95v-14.93m0-9.95v-14.92m0-9.96V187.8m0-9.95v-14.93m0-9.95v-14.93m0-9.95v-14.93m0-9.95V88.3m0-9.96V63.4m0-9.94V46l.07-.94.22-.9.35-.88.5-.8.6-.72.72-.6.8-.5.88-.37.9-.23h7.35" stroke="#fff" stroke-width="5" fill="none"/><use xlink:href="#a" transform="matrix(1,0,0,1,1268,68) translate(0 51.555555555555486)"/><path d="M2220 46a6 6 0 0 1 6-6h451.9a6 6 0 0 1 6 6v1620.87a6 6 0 0 1-6 6H2226a6 6 0 0 1-6-6z" fill="#f2f3f5" fill-opacity=".2"/><path d="M2242.67 40.07h15.1m10.06 0h15.1m10.06 0h15.08m10.07 0h15.1m10.05-.02h15.1m10.06 0h15.1m10.06 0h15.1m10.06 0h15.1m10.05 0h15.1m10.06-.02h15.1m10.05 0h15.1m10.06 0h15.1m10.06 0h15.1m10.06 0h15.1m10.06-.02h15.1m10.06 0h15.1m10.06 0h15.1m10.05 0h7.55l.94.07.92.22.87.35.8.5.7.6.63.72.5.8.35.88.23.9v7.5m0 9.98V77.5m0 9.98v14.97m0 9.98v14.97m0 9.98v14.97m0 9.98v14.97m0 9.98v14.97m0 9.98v14.97m0 9.98v14.97m0 9.98v14.97m0 10v14.96m0 9.98V327m0 10v14.96m0 9.98v14.97m0 10v14.96m0 9.98v14.97m0 10l.02 14.96m0 9.98v14.97m0 10v14.96m0 9.98v14.97m0 10v14.97m0 9.98v14.97m0 9.98v14.97m0 9.98v14.97m0 9.98v14.97m0 9.98v14.97m0 9.98v14.97m0 9.98v14.97m0 9.98v14.97m0 9.98v14.97m0 9.98v14.97m0 9.98v14.98m0 9.98V851m0 9.98l.02 14.97m0 9.98v14.98m0 9.98v14.97m0 9.98v14.98m0 9.98v14.97m0 9.98v14.98m0 9.98v14.97m0 9.98v14.98m0 9.98v14.97m0 9.98v15m0 9.97v14.97m0 9.98v14.97m0 9.97v14.97m0 9.98v14.97m0 9.97v14.97m0 9.98v14.97m0 9.97v14.97m0 9.98v14.97m0 9.97l.02 14.97m0 9.98V1350m0 9.97v14.98m0 9.98v14.97m0 9.98v14.97m0 9.98v14.97m0 9.98v14.97m0 9.98v14.97m0 9.98v14.97m0 9.98v14.97m0 9.98v14.97m0 9.98v14.97m0 9.98v14.97m0 10v14.96m0 10v7.47l-.07.94-.22.93-.35.87-.5.8-.6.7-.72.63-.8.5-.87.35-.92.22h-7.55m-10.07 0h-15.1m-10.06 0h-15.1m-10.06 0h-15.08m-10.06 0h-15.1m-10.06.02h-15.1m-10.06 0h-15.1m-10.06 0h-15.1m-10.06 0h-15.1m-10.05 0l-15.1.02m-10.06 0h-15.1m-10.05 0h-15.1m-10.06 0h-15.1m-10.06 0h-15.1m-10.06 0l-15.1.02m-10.06 0h-15.1m-10.06 0h-15.1m-10.05 0h-15.1m-10.05 0H2226l-.94-.06-.9-.22-.88-.36-.8-.5-.72-.6-.6-.72-.5-.8-.37-.87-.23-.92v-7.48m0-9.98v-14.97m0-9.98v-14.98m0-9.98v-14.97m0-9.98v-14.98m0-9.98v-14.97m0-9.98v-14.98m0-9.98v-14.97m0-9.98v-14.98m0-9.98v-14.97m0-9.98v-14.98m0-9.98v-14.98m0-9.98v-14.97m0-9.97v-14.97m0-9.98V1311m0-9.97v-14.97m0-9.98v-14.97m-.02-9.97v-14.97m0-9.98v-14.97m0-9.97v-14.97m0-9.98v-14.97m0-9.97v-14.97m0-10v-14.96m0-9.98v-14.97m0-9.98v-14.97m0-9.98v-14.97m0-9.98v-14.97m0-9.98v-14.97m0-9.98V961.7m0-9.98v-14.97m0-9.98V911.8m0-9.98v-14.97m0-9.98V861.9m0-10v-14.96m0-9.98l-.02-14.97m0-10v-14.96m0-9.98V762.1m0-10v-14.96m0-9.98V712.2m0-10v-14.96m0-9.98V662.3m0-10v-14.96m0-9.98V612.4m0-10v-14.97m0-9.98v-14.97m0-9.98v-14.97m0-9.98v-14.97m0-9.98v-14.97m0-9.98v-14.97m0-9.98v-14.97m0-9.98v-14.97m0-9.98v-14.97m0-9.98l-.02-14.97m0-9.98v-14.97m0-9.98v-14.98m0-9.98V288m0-9.98v-14.97m0-9.98V238.1m0-9.98v-14.97m0-9.98V188.2m0-9.98v-14.97m0-9.98V138.3m0-9.98v-14.97m0-9.98V88.4m0-9.98V63.47m0-9.98V46l.07-.94.22-.9.35-.88.5-.8.6-.72.72-.6.8-.5.88-.37.9-.23h7.56" stroke="#fff" stroke-width="5" fill="none"/><use xlink:href="#b" transform="matrix(1,0,0,1,2248,68) translate(0 51.555555555555486)"/><path d="M360 50.8a6 6 0 0 1 6-6h508a6 6 0 0 1 6 6v1616.07a6 6 0 0 1-6 6H366a6 6 0 0 1-6-6z" fill="#f2f3f5" fill-opacity=".2"/><path d="M382.87 44.88h15.27m10.18 0h15.27m10.17 0h15.27m10.18 0h15.26m10.18 0h15.27m10.18 0l15.28-.02m10.18 0h15.26m10.18 0h15.27m10.18 0h15.27m10.18 0h15.26m10.18 0l15.27-.02m10.2 0h15.26m10.18 0h15.27m10.18 0h15.27m10.18 0h15.27m10.18 0h15.27m10.18-.02h15.26m10.17 0h15.27m10.18 0h15.27m10.17 0H874l.94.07.9.2.88.37.8.5.72.6.6.72.5.8.37.86.23.9v7.48m0 9.95v14.9m0 9.96v14.93m0 9.94v14.93m0 9.95v14.92m0 9.96v14.92m0 9.95v14.93m0 9.95v14.93m0 9.95v14.92m0 9.95v14.93m0 9.95v14.93m0 9.96v14.92m0 9.95v14.93m0 9.95v14.94m0 9.95v14.9m0 9.96v14.93m0 9.94v14.93m.02 9.95v14.92m0 9.95v14.92m0 9.95V530m0 9.95v14.92m0 9.96v14.92m0 9.95v14.93m0 9.95v14.93m0 9.96v14.92m0 9.95v14.93m0 9.95v14.94m0 9.95V729m0 9.96v14.93m0 9.94v14.93m0 9.95v14.92m0 9.95v14.92m0 9.95v14.93m0 9.95v14.92m0 9.95l.02 14.93m0 9.95v14.93m0 9.95v14.92m0 9.96v14.92m0 9.95v14.93m0 9.95v14.94m0 9.95v14.9m0 9.96v14.93m0 9.94v14.93m0 9.95v14.92m0 9.95v14.92m0 9.95v14.93m0 9.95v14.92m0 9.95v14.93m0 9.95v14.93m0 9.95v14.92m0 9.95v14.93m0 9.95v14.93m0 9.95l.02 14.93m0 9.96v14.9m0 9.96v14.93m0 9.94v14.93m0 9.95v14.92m0 9.95v14.92m0 9.95v14.93m0 9.95v14.92m0 9.95v14.93m0 9.95v14.93m0 9.95v14.92m0 9.95v14.93m0 9.95v14.93m0 9.95v7.47l-.07.94-.22.93-.35.87-.5.8-.6.7-.72.63-.8.5-.88.35-.9.22h-7.65m-10.17 0h-15.27m-10.18 0H816.4m-10.17 0h-15.27m-10.18 0h-15.26m-10.18 0l-15.27.02m-10.18 0H714.6m-10.18 0h-15.26m-10.18 0h-15.27m-10.18 0h-15.27m-10.18 0l-15.26.02m-10.18 0H587.4m-10.2 0h-15.26m-10.18 0H536.5m-10.18 0h-15.27m-10.18 0H485.6m-10.18.02h-15.27m-10.18 0H434.7m-10.17 0h-15.27m-10.18 0H383.8m-10.17 0H366l-.94-.06-.9-.22-.88-.36-.8-.5-.72-.6-.6-.72-.5-.8-.37-.87-.23-.92v-7.45m0-9.95v-14.93m0-9.95v-14.93m0-9.96v-14.92m0-9.95v-14.93m0-9.95v-14.94m0-9.95v-14.9m0-9.97v-14.92m0-9.94v-14.93m0-9.95v-14.93m0-9.95v-14.92m0-9.95v-14.93m0-9.95v-14.93m0-9.95v-14.92m0-9.95v-14.93m0-9.95v-14.93m0-9.96v-14.92m-.02-9.95v-14.93m0-9.95v-14.94m0-9.95v-14.9m0-9.96v-14.93m0-9.94v-14.93m0-9.95v-14.92m0-9.96v-14.92m0-9.95v-14.93m0-9.95v-14.93m0-9.95v-14.92m0-9.95v-14.93m0-9.95V963.8m0-9.96v-14.92m0-9.95v-14.93m0-9.95v-14.94m0-9.95v-14.9m0-9.96V839.4m0-9.94l-.02-14.93m0-9.95v-14.92m0-9.95V764.8m0-9.95V739.9m0-9.95v-14.92m0-9.96v-14.92m0-9.95v-14.93m0-9.95V640.4m0-9.96v-14.92m0-9.95v-14.93m0-9.95v-14.94m0-9.95v-14.9m0-9.96V516m0-9.94v-14.93m0-9.95v-14.92m0-9.95V441.4m0-9.95V416.5m0-9.95v-14.92m0-9.95l-.02-14.93m0-9.95v-14.93m0-9.95V317m0-9.96v-14.92m0-9.95v-14.93m0-9.95v-14.94m0-9.95v-14.9m0-9.96V192.6m0-9.94v-14.93m0-9.95v-14.92m0-9.95V118m0-9.95V93.1m0-9.95V68.23m0-9.95V50.8l.07-.93.22-.9.35-.88.5-.8.6-.73.72-.6.8-.5.88-.36.9-.2h7.65" stroke="#fff" stroke-width="5" fill="none"/><use xlink:href="#c" transform="matrix(1,0,0,1,388,72.81263861545813) translate(0 51.555555555555486)"/><path d="M49.23 286a6 6 0 0 1 6-6h2768a6 6 0 0 1 6 6v488a6 6 0 0 1-6 6h-2768a6 6 0 0 1-6-6z" fill="#f2f3f5" fill-opacity=".2"/><path d="M71.76 280.07h14.96m9.98 0h14.97m9.98 0h14.97m9.97 0h14.96m9.98 0h14.97m9.98 0h14.97m9.98 0h14.97m9.98 0h14.96m9.98 0h14.97m9.97 0h14.96m9.98 0h14.98m9.98 0h14.96m9.98 0h14.97m9.98 0H411m10 0h14.96m9.98 0h14.97m9.98 0h14.97m9.98 0h14.97m9.97 0h14.97m9.98 0h14.97m9.97 0h14.96m9.98 0h14.98m9.98 0h14.96m9.98 0h14.97m9.98 0h14.96m10 0h14.96m9.98 0h14.97m9.98 0h14.97m9.98-.02h14.97m9.97 0h14.97m9.98 0h14.97m9.96 0h14.97m9.98 0H885m9.98 0h14.96m9.98 0h14.97m9.98 0h14.96m10 0h14.96m9.98 0h14.96m9.98 0h14.97m9.98 0h14.97m9.97 0h14.97m9.98 0h14.97m9.96 0h14.97m9.98 0h14.98m9.97 0h14.97m9.98 0h14.97m9.98 0h14.96m10 0h14.96m9.98 0h14.96m9.98 0h14.97m9.98 0H1334m9.97 0h14.97m9.98 0h14.97m9.96 0h14.97m9.98 0h14.98m9.97 0h14.97m9.98 0h14.97m9.97 0h14.97m10-.02h14.96m9.98 0h14.96m9.98 0h14.97m9.98 0h14.96m9.97 0h14.97m9.98 0h14.96m9.98 0h14.97m9.98 0h14.98m9.97 0h14.97m9.98 0h14.97m9.97 0H1783m10 0h14.96m9.98 0h14.96m9.98 0h14.97m9.98 0h14.96m9.97 0h14.97m9.98 0h14.96m9.98 0h14.97m9.98 0h14.97m9.98 0h14.97m9.98 0h14.97m9.97 0h14.97m10 0h14.96m9.97 0h14.97m9.98 0h14.97m9.98 0h14.96m9.97 0h14.97m9.98 0h14.96m9.98 0h14.97m9.98 0h14.97m9.98-.02h14.97m9.98 0h14.96m9.98 0h14.97m10 0h14.96m9.97 0h14.97m9.98 0h14.97m9.97 0h14.97m9.97 0h14.97m9.98 0h14.96m9.98 0h14.97m9.98 0h14.97m9.98 0h14.97m9.98 0h14.96m9.98 0h14.97m10 0h14.95m9.98 0h14.97m9.98 0h14.97m9.97 0H2706m9.97 0h14.97m9.97 0h14.98m9.98 0h14.97m9.98 0h14.97m9.98 0h7.48l.94.07.92.22.86.35.8.5.72.6.6.72.5.8.36.88.22.9v7.35m0 9.77v14.67m0 9.78v14.67m0 9.77v14.67m0 9.78l.02 14.66m0 9.78v14.67m0 9.78v14.68m0 9.78v14.66m0 9.78v14.67m0 9.78v14.67m.02 9.78v14.66m0 9.78v14.67m0 9.8v14.66m0 9.78v14.67m0 9.78v14.67m0 9.78l.02 14.67m0 9.78v14.67m0 9.78V708m0 9.77v14.67m0 9.78v14.67m0 9.77V774l-.06.94-.22.9-.36.88-.5.8-.6.72-.72.6-.8.5-.87.37-.93.23h-7.48m-10 0h-14.96m-9.97 0h-14.97m-9.98 0h-14.97m-9.97 0h-14.97m-9.97 0h-14.97m-9.98 0h-14.96m-9.98 0h-14.97m-9.98 0h-14.97m-9.98 0h-14.97m-9.98 0h-14.96m-9.98 0h-14.97m-10 0h-14.96m-9.97 0h-14.97m-9.98 0h-14.97m-9.97 0h-14.97m-9.97 0h-14.97m-9.98 0h-14.96m-9.98 0h-14.97m-9.98 0h-14.97m-9.98 0h-14.97m-9.98 0h-14.96m-9.98 0h-14.97m-10 0h-14.95m-9.98 0H2218m-9.98 0h-14.97m-9.97 0h-14.97m-9.97 0h-14.97m-9.97 0h-14.98m-9.98.02h-14.97m-9.98 0h-14.97m-9.98 0h-14.97m-9.98 0h-14.96m-9.98 0h-14.97m-10 0h-14.95m-9.98 0h-14.97m-9.98 0h-14.96m-9.98 0h-14.97m-9.97 0h-14.97m-9.97 0h-14.98m-9.98 0h-14.97m-9.97 0h-14.97m-9.98 0h-14.97m-9.98 0h-14.96m-9.98 0h-14.97m-10 0h-14.95m-9.98 0h-14.97m-9.98 0h-14.96m-9.98 0h-14.97m-9.97 0h-14.96m-9.98 0h-14.98m-9.98 0h-14.97m-9.97 0h-14.97m-9.98 0h-14.97m-9.97 0h-14.96m-9.98 0h-14.97m-10 0h-14.95m-9.98 0h-14.97m-9.98 0h-14.96m-9.98.02h-14.97m-9.97 0h-14.96m-9.98 0H1295m-9.98 0h-14.96m-9.98 0h-14.97m-9.98 0h-14.97m-9.97 0h-14.96m-9.98 0h-14.97m-9.98 0h-14.97m-9.98 0h-14.97m-9.98 0h-14.96m-9.98 0h-14.97m-9.97 0h-14.96m-9.98 0h-14.98m-9.98 0h-14.96m-9.98 0h-14.97m-9.98 0h-14.97m-9.97 0h-14.96m-9.98 0H895.9m-9.98 0h-14.97m-9.98 0H846m-9.97 0h-14.97m-9.98 0H796.1m-9.97 0h-14.96m-9.98 0H746.2m-9.98 0h-14.96m-9.98 0h-14.97m-9.98 0H671.4m-10 0h-14.96m-9.98 0H621.5m-9.98.02h-14.97m-9.98 0H571.6m-9.97 0h-14.97m-9.98 0H521.7m-9.96 0h-14.97m-9.98 0H471.8m-9.98 0h-14.96m-9.98 0h-14.97m-9.98 0H397m-10 0h-14.96m-9.98 0H347.1m-9.98 0h-14.97m-9.98 0H297.2m-9.97 0h-14.97m-9.98 0H247.3m-9.96 0h-14.97m-9.98 0H197.4m-9.98 0h-14.96m-9.98 0h-14.97m-9.98 0H122.6m-10 0H97.65m-9.98 0H72.7m-9.98 0h-7.5l-.92-.07-.92-.22-.87-.35-.8-.5-.7-.6-.62-.72-.5-.8-.35-.88-.22-.9v-7.35m0-9.77v-14.67m0-9.78V718.7m0-9.77v-14.67m0-9.78v-14.66m0-9.78v-14.67m0-9.78V620.9m-.02-9.78v-14.66m0-9.78v-14.67m0-9.78v-14.67m0-9.78v-14.66m0-9.78V498.7m0-9.8l-.02-14.66m0-9.78V449.8m0-9.78v-14.67m0-9.78V400.9m0-9.78v-14.67m0-9.78L49.23 352m0-9.77v-14.67m0-9.78V303.1m0-9.77V286l.07-.94.23-.9.36-.88.48-.8.6-.72.73-.6.8-.5.88-.37.92-.23h7.48" stroke="#fff" stroke-width="5" fill="none"/><use xlink:href="#d" transform="matrix(1,0,0,1,77.23441639938642,308) translate(0 51.555555555555486)"/><path d="M49.23 1065.4a6 6 0 0 1 6-6h2768a6 6 0 0 1 6 6v399.73a6 6 0 0 1-6 6h-2768a6 6 0 0 1-6-6z" fill="#f2f3f5" fill-opacity=".2"/><path d="M71.76 1059.48h14.96m9.98 0h14.97m9.98 0h14.97m9.97 0h14.96m9.98 0h14.97m9.98 0h14.97m9.98 0h14.97m9.98 0h14.96m9.98 0h14.97m9.97 0h14.96m9.98 0h14.98m9.98 0h14.96m9.98 0h14.97m9.98 0H411m10 0h14.96m9.98 0h14.97m9.98 0h14.97m9.98 0h14.97m9.97 0h14.97m9.98 0h14.97m9.97 0h14.96m9.98 0h14.98m9.98 0h14.96m9.98 0h14.97m9.98 0h14.96m10 0h14.96m9.98 0h14.97m9.98 0l14.97-.02m9.98 0h14.97m9.97 0h14.97m9.98 0h14.97m9.96 0h14.97m9.98 0H885m9.98 0h14.96m9.98 0h14.97m9.98 0h14.96m10 0h14.96m9.98 0h14.96m9.98 0h14.97m9.98 0h14.97m9.97 0h14.97m9.98 0h14.97m9.96 0h14.97m9.98 0h14.98m9.97 0h14.97m9.98 0h14.97m9.98 0h14.96m10 0h14.96m9.98 0h14.96m9.98 0h14.97m9.98 0H1334m9.97 0h14.97m9.98 0h14.97m9.96 0h14.97m9.98 0h14.98m9.97 0h14.97m9.98 0h14.97m9.97 0h14.97m10-.02h14.96m9.98 0h14.96m9.98 0h14.97m9.98 0h14.96m9.97 0h14.97m9.98 0h14.96m9.98 0h14.97m9.98 0h14.98m9.97 0h14.97m9.98 0h14.97m9.97 0H1783m10 0h14.96m9.98 0h14.96m9.98 0h14.97m9.98 0h14.96m9.97 0h14.97m9.98 0h14.96m9.98 0h14.97m9.98 0h14.97m9.98 0h14.97m9.98 0h14.97m9.97 0h14.97m10 0h14.96m9.97 0h14.97m9.98 0h14.97m9.98 0h14.96m9.97 0h14.97m9.98 0h14.96m9.98 0h14.97m9.98 0h14.97m9.98-.02h14.97m9.98 0h14.96m9.98 0h14.97m10 0h14.96m9.97 0h14.97m9.98 0h14.97m9.97 0h14.97m9.97 0h14.97m9.98 0h14.96m9.98 0h14.97m9.98 0h14.97m9.98 0h14.97m9.98 0h14.96m9.98 0h14.97m10 0h14.95m9.98 0h14.97m9.98 0h14.97m9.97 0H2706m9.97 0h14.97m9.97 0h14.98m9.98 0h14.97m9.98 0h14.97m9.98 0h7.48l.94.06.92.22.86.36.8.5.72.6.6.72.5.8.36.88.22.9v7.52m0 10.02v15.02m0 10.02v15.03m0 10l.02 15.04m0 10.02v15.03m0 10v15.04m0 10v15.03m0 10.02v15.02m.02 10.02v15m0 10.03v15.02m0 10.02v15.02m0 10v15.04m0 10l.02 15.04m0 10v15.04m0 10v15.04m0 10.02v15.02m0 10.02v7.5l-.06.95-.22.9-.36.88-.5.8-.6.72-.72.6-.8.5-.87.36-.93.22h-7.48m-10 0h-14.96m-9.97 0h-14.97m-9.98 0h-14.97m-9.97 0h-14.97m-9.97 0h-14.97m-9.98 0h-14.96m-9.98 0h-14.97m-9.98 0h-14.97m-9.98 0h-14.97m-9.98 0h-14.96m-9.98 0h-14.97m-10 0h-14.96m-9.97 0h-14.97m-9.98 0h-14.97m-9.97 0h-14.97m-9.97 0l-14.97.02m-9.98 0h-14.96m-9.98 0h-14.97m-9.98 0h-14.97m-9.98 0h-14.97m-9.98 0h-14.96m-9.98 0h-14.97m-10 0h-14.95m-9.98 0H2218m-9.98 0h-14.97m-9.97 0h-14.97m-9.97 0h-14.97m-9.97 0h-14.98m-9.98 0h-14.97m-9.98 0h-14.97m-9.98 0h-14.97m-9.98 0h-14.96m-9.98 0h-14.97m-10 0h-14.95m-9.98 0h-14.97m-9.98 0h-14.96m-9.98 0h-14.97m-9.97 0h-14.97m-9.97 0h-14.98m-9.98 0h-14.97m-9.97 0h-14.97m-9.98 0h-14.97m-9.98 0h-14.96m-9.98 0h-14.97m-10 0h-14.95m-9.98 0l-14.97.02m-9.98 0h-14.96m-9.98 0h-14.97m-9.97 0h-14.96m-9.98 0h-14.98m-9.98 0h-14.97m-9.97 0h-14.97m-9.98 0h-14.97m-9.97 0h-14.96m-9.98 0h-14.97m-10 0h-14.95m-9.98 0h-14.97m-9.98 0h-14.96m-9.98 0h-14.97m-9.97 0h-14.96m-9.98 0H1295m-9.98 0h-14.96m-9.98 0h-14.97m-9.98 0h-14.97m-9.97 0h-14.96m-9.98 0h-14.97m-9.98 0h-14.97m-9.98 0h-14.97m-9.98 0h-14.96m-9.98 0h-14.97m-9.97 0h-14.96m-9.98 0h-14.98m-9.98 0h-14.96m-9.98 0h-14.97m-9.98 0h-14.97m-9.97 0h-14.96m-9.98 0H895.9m-9.98 0h-14.97m-9.98 0H846m-9.97 0h-14.97m-9.98 0H796.1m-9.97 0h-14.96m-9.98 0H746.2m-9.98 0h-14.96m-9.98 0h-14.97m-9.98 0H671.4m-10 0h-14.96m-9.98 0H621.5m-9.98 0h-14.97m-9.98 0H571.6m-9.97 0l-14.97.02m-9.98 0H521.7m-9.96 0h-14.97m-9.98 0H471.8m-9.98 0h-14.96m-9.98 0h-14.97m-9.98 0H397m-10 0h-14.96m-9.98 0H347.1m-9.98 0h-14.97m-9.98 0H297.2m-9.97 0h-14.97m-9.98 0H247.3m-9.96 0h-14.97m-9.98 0H197.4m-9.98 0h-14.96m-9.98 0h-14.97m-9.98 0H122.6m-10 0H97.65m-9.98 0H72.7m-9.98 0h-7.5l-.92-.07-.92-.22-.87-.36-.8-.5-.7-.6-.62-.7-.5-.82-.35-.87-.22-.9v-7.53m0-10v-15.04m0-10v-15.03m0-10v-15.04m0-10v-15.04m0-10.03l-.02-15.02m0-10.02v-15.02m0-10v-15.03m0-10.02v-15.02m0-10.02v-15m-.02-10.03v-15.03m0-10v-15.04m0-10v-15.04m0-10V1133m0-10.02l-.02-15.02m0-10.02v-15.02m0-10.02v-7.5l.07-.95.23-.9.36-.88.48-.82.6-.7.73-.62.8-.5.88-.36.92-.22h7.48" stroke="#fff" stroke-width="5" fill="none"/><use xlink:href="#e" transform="matrix(1,0,0,1,77.23441639938642,1087.4098907110529) translate(0 51.555555555555486)"/><use xlink:href="#f" transform="matrix(1,0,0,1,77.23441639938642,1087.4098907110529) translate(0 128.88888888888872)"/><path d="M593.23 340.92c-11.4 0-20.65 31.34-20.65 70s9.25 70 20.65 70H407.43c-11.42 0-20.66-31.34-20.66-70s9.24-70 20.65-70z" stroke="#0c7cba" stroke-width="7" fill="#c1e4f7"/><use xlink:href="#g" transform="matrix(1,0,0,1,391.7709768955556,345.9170665186002) translate(15.04938271604938 70.84722222222223)"/><path d="M580 703.64c0 10.04-40.3 18.18-90 18.18s-90-8.14-90-18.18V558.18c0-10.04 40.3-18.18 90-18.18s90 8.14 90 18.18z" stroke="#ef8d22" stroke-width="7" fill="#ffeca9"/><path d="M580 558.18c0 10.04-40.3 18.18-90 18.18s-90-8.14-90-18.18" stroke="#ef8d22" stroke-width="7" fill="none"/><use xlink:href="#h" transform="matrix(1,0,0,1,405,581.3644303283867) translate(20.043209876543216 51.47222222222223)"/><use xlink:href="#i" transform="matrix(1,0,0,1,405,581.3644303283867) translate(40.925925925925924 96.80555555555557)"/><path d="M620 457.72a6 6 0 0 1 6-6h194.6a6 6 0 0 1 6 6v142.52a6 6 0 0 1-6 6H626a6 6 0 0 1-6-6z" stroke="#e81313" stroke-width="7" fill="#ffd9d9"/><path d="M640.66 451.72v154.52m165.27-154.52v154.52" stroke="#e81313" stroke-width="7" fill="none"/><use xlink:href="#j" transform="matrix(1,0,0,1,650.8231295964881,456.7151054790743) translate(-4.0524691358024825 57.388888888888886)"/><use xlink:href="#k" transform="matrix(1,0,0,1,650.8231295964881,456.7151054790743) translate(27.429012345679013 102.72222222222223)"/><path d="M1501.55 1111.27a4.6 4.6 0 0 1 4.45-5.8h214.6a4.6 4.6 0 0 1 4.44 5.8l-38.12 142.93a7.8 7.8 0 0 1-7.54 5.8H1547.2a7.8 7.8 0 0 1-7.54-5.8z" stroke="#635dff" stroke-width="7" fill="#dedeff"/><use xlink:href="#l" transform="matrix(1,0,0,1,1505,1110.4713496586173) translate(17.313641975308666 57.40972222222223)"/><use xlink:href="#m" transform="matrix(1,0,0,1,1505,1110.4713496586173) translate(60.28586419753087 102.74305555555557)"/><path d="M1300 1266a6 6 0 0 1 6-6h194.46a6 6 0 0 1 6 6v154c-34.48-26.72-55.95-26.72-68.96-26.72-20.64 0-48.1 26.72-68.75 26.72-12.8 0-34.48 0-68.75-26.72z" stroke="#008573" stroke-width="7" fill="#d7faf5"/><use xlink:href="#n" transform="matrix(1,0,0,1,1305,1265) translate(46.87037037037037 45.72222222222223)"/><use xlink:href="#i" transform="matrix(1,0,0,1,1305,1265) translate(54.425925925925924 91.05555555555556)"/><path d="M2430.33 424.8a7.43 7.43 0 0 1 9.34 0l125.66 101.43a4.84 4.84 0 0 1 0 7.54L2439.67 635.2a7.43 7.43 0 0 1-9.34 0l-125.66-101.43a4.84 4.84 0 0 1 0-7.54z" stroke="#19967d" stroke-width="7" fill="#c7e8ac"/><use xlink:href="#o" transform="matrix(1,0,0,1,2305,426.0205693502343) translate(49.35493827160494 88.88888888888889)"/><use xlink:href="#p" transform="matrix(1,0,0,1,2305,426.0205693502343) translate(48.672839506172835 134.22222222222223)"/><path d="M624.47 1284.85A11.77 11.77 0 0 1 634 1280h132a11.77 11.77 0 0 1 9.53 4.85l40.94 56.4a8.26 8.26 0 0 1 0 9.7l-40.94 56.38a11.77 11.77 0 0 1-9.53 4.86H634a11.77 11.77 0 0 1-9.53-4.87l-40.94-56.38a8.26 8.26 0 0 1 0-9.7z" stroke="#d916a8" stroke-width="7" fill="#f4d9ff"/><use xlink:href="#q" transform="matrix(1,0,0,1,585,1285) translate(93.56981481481482 45.59722222222223)"/><use xlink:href="#r" transform="matrix(1,0,0,1,585,1285) translate(56.39697530864197 90.93055555555556)"/><path d="M599.4 812.9v213.66" stroke="#fff" stroke-width="6" fill="none"/><path d="M599.4 788.38l12.74 21.52H586.7zM599.4 1051.07l-12.7-21.5h25.44z" stroke="#fff" stroke-width="6" fill="#fff"/><use xlink:href="#s" transform="matrix(1,0,0,1,607.4114253399795,847.72737601154) translate(0 31.99999999999999)"/><use xlink:href="#t" transform="matrix(1,0,0,1,607.4114253399795,847.72737601154) translate(24.333333333333325 31.99999999999999)"/><use xlink:href="#u" transform="matrix(1,0,0,1,607.4114253399795,847.72737601154) translate(179.7777777777777 31.99999999999999)"/><use xlink:href="#v" transform="matrix(1,0,0,1,607.4114253399795,847.72737601154) translate(0 79.99999999999997)"/><use xlink:href="#w" transform="matrix(1,0,0,1,607.4114253399795,847.72737601154) translate(24.333333333333325 79.99999999999997)"/><use xlink:href="#u" transform="matrix(1,0,0,1,607.4114253399795,847.72737601154) translate(115.3333333333333 79.99999999999997)"/><use xlink:href="#v" transform="matrix(1,0,0,1,607.4114253399795,847.72737601154) translate(0 127.99999999999996)"/><use xlink:href="#x" transform="matrix(1,0,0,1,607.4114253399795,847.72737601154) translate(24.333333333333325 127.99999999999996)"/><use xlink:href="#y" transform="matrix(1,0,0,1,607.4114253399795,847.72737601154) translate(159.6666666666666 127.99999999999996)"/><path d="M1822.13 1273.06h615.74a6 6 0 0 0 6-6v-454.2" stroke="#fff" stroke-width="6" fill="none"/><path d="M1797.6 1273.06l21.53-12.73v25.45zM2443.87 788.33l12.72 21.52h-25.46z" stroke="#fff" stroke-width="6" fill="#fff"/><g><use xlink:href="#s" transform="matrix(1,0,0,1,1875.4075359542971,1125.05835128075) translate(0 31.99999999999999)"/><use xlink:href="#z" transform="matrix(1,0,0,1,1875.4075359542971,1125.05835128075) translate(24.333333333333325 31.99999999999999)"/><use xlink:href="#A" transform="matrix(1,0,0,1,1875.4075359542971,1125.05835128075) translate(119.88888888888887 31.99999999999999)"/><use xlink:href="#v" transform="matrix(1,0,0,1,1875.4075359542971,1125.05835128075) translate(0 79.99999999999997)"/><use xlink:href="#B" transform="matrix(1,0,0,1,1875.4075359542971,1125.05835128075) translate(24.333333333333325 79.99999999999997)"/><use xlink:href="#A" transform="matrix(1,0,0,1,1875.4075359542971,1125.05835128075) translate(186.3333333333333 79.99999999999997)"/><use xlink:href="#v" transform="matrix(1,0,0,1,1875.4075359542971,1125.05835128075) translate(0 127.99999999999996)"/><use xlink:href="#x" transform="matrix(1,0,0,1,1875.4075359542971,1125.05835128075) translate(24.333333333333325 127.99999999999996)"/><use xlink:href="#y" transform="matrix(1,0,0,1,1875.4075359542971,1125.05835128075) translate(159.6666666666666 127.99999999999996)"/></g><path d="M410 1100c29.88 26.56 48.78 26.56 59.94 26.56 18 0 41.94-26.56 59.94-26.56 11.34 0 30.06 0 60.12 26.56V1260c-30.06-26.72-48.78-26.72-60.12-26.72-18 0-41.94 26.72-59.94 26.72-11.16 0-30.06 0-59.94-26.72z" stroke="#e81313" stroke-width="7" fill="#ffd9d9"/><g><use xlink:href="#C" transform="matrix(1,0,0,1,415,1105) translate(26.339506172839506 58.34722222222223)"/><use xlink:href="#D" transform="matrix(1,0,0,1,415,1105) translate(43.02469135802469 103.68055555555557)"/></g><path d="M912.9 1282.6h147.02a.1.1 0 0 1 .1.1.1.1 0 0 0 .1.1h147.02" stroke="#fff" stroke-width="6" fill="none"/><path d="M888.38 1282.6l21.5-12.72v25.45zM1231.66 1282.8l-21.52 12.74v-25.46z" stroke="#fff" stroke-width="6" fill="#fff"/><g><use xlink:href="#s" transform="matrix(1,0,0,1,925.8050101186504,1182.603992010166) translate(0 31.99999999999999)"/><use xlink:href="#E" transform="matrix(1,0,0,1,925.8050101186504,1182.603992010166) translate(24.333333333333325 31.99999999999999)"/><use xlink:href="#F" transform="matrix(1,0,0,1,925.8050101186504,1182.603992010166) translate(144.22222222222217 31.99999999999999)"/><use xlink:href="#v" transform="matrix(1,0,0,1,925.8050101186504,1182.603992010166) translate(0 79.99999999999997)"/><use xlink:href="#x" transform="matrix(1,0,0,1,925.8050101186504,1182.603992010166) translate(24.333333333333325 79.99999999999997)"/><use xlink:href="#y" transform="matrix(1,0,0,1,925.8050101186504,1182.603992010166) translate(159.6666666666666 79.99999999999997)"/></g><defs><path fill="#fff" d="M67-125c0 53 21 87 73 88 37 1 54-22 65-47l45 17C233-25 199 4 140 4 58 4 20-42 15-125 8-235 124-281 211-232c18 10 29 29 36 50l-46 12c-8-25-30-41-62-41-52 0-71 34-72 86" id="G"/><path fill="#fff" d="M25 0v-261h50V0H25" id="H"/><path fill="#fff" d="M110-194c64 0 96 36 96 99 0 64-35 99-97 99-61 0-95-36-95-99 0-62 34-99 96-99zm-1 164c35 0 45-28 45-65 0-40-10-65-43-65-34 0-45 26-45 65 0 36 10 65 43 65" id="I"/><path fill="#fff" d="M85 4C-2 5 27-109 22-190h50c7 57-23 150 33 157 60-5 35-97 40-157h50l1 190h-47c-2-12 1-28-3-38-12 25-28 42-61 42" id="J"/><path fill="#fff" d="M88-194c31-1 46 15 58 34l-1-101h50l1 261h-48c-2-10 0-23-3-31C134-8 116 4 84 4 32 4 16-41 15-95c0-56 19-97 73-99zm17 164c33 0 40-30 41-66 1-37-9-64-41-64s-38 30-39 65c0 43 13 65 39 65" id="K"/><g id="a"><use transform="matrix(0.1790123456790121,0,0,0.1790123456790121,0,0)" xlink:href="#G"/><use transform="matrix(0.1790123456790121,0,0,0.1790123456790121,46.36419753086414,0)" xlink:href="#H"/><use transform="matrix(0.1790123456790121,0,0,0.1790123456790121,64.26543209876536,0)" xlink:href="#I"/><use transform="matrix(0.1790123456790121,0,0,0.1790123456790121,103.469135802469,0)" xlink:href="#J"/><use transform="matrix(0.1790123456790121,0,0,0.1790123456790121,142.67283950617266,0)" xlink:href="#K"/></g><path fill="#fff" d="M182-130c37 4 62 22 62 59C244 23 116-4 24 0v-248c84 5 203-23 205 63 0 31-19 50-47 55zM76-148c40-3 101 13 101-30 0-44-60-28-101-31v61zm0 110c48-3 116 14 116-37 0-48-69-32-116-35v72" id="L"/><path fill="#fff" d="M190-63c-7 42-38 67-86 67-59 0-84-38-90-98-12-110 154-137 174-36l-49 2c-2-19-15-32-35-32-30 0-35 28-38 64-6 74 65 87 74 30" id="M"/><path fill="#fff" d="M147 0L96-86 75-71V0H25v-261h50v150l67-79h53l-66 74L201 0h-54" id="N"/><path fill="#fff" d="M114-157C55-157 80-60 75 0H25v-261h50l-1 109c12-26 28-41 61-42 86-1 58 113 63 194h-50c-7-57 23-157-34-157" id="O"/><path fill="#fff" d="M133-34C117-15 103 5 69 4 32 3 11-16 11-54c-1-60 55-63 116-61 1-26-3-47-28-47-18 1-26 9-28 27l-52-2c7-38 36-58 82-57s74 22 75 68l1 82c-1 14 12 18 25 15v27c-30 8-71 5-69-32zm-48 3c29 0 43-24 42-57-32 0-66-3-65 30 0 17 8 27 23 27" id="P"/><path fill="#fff" d="M25-224v-37h50v37H25zM25 0v-190h50V0H25" id="Q"/><path fill="#fff" d="M135-194c87-1 58 113 63 194h-50c-7-57 23-157-34-157-59 0-34 97-39 157H25l-1-190h47c2 12-1 28 3 38 12-26 28-41 61-42" id="R"/><g id="b"><use transform="matrix(0.1790123456790121,0,0,0.1790123456790121,0,0)" xlink:href="#L"/><use transform="matrix(0.1790123456790121,0,0,0.1790123456790121,46.36419753086414,0)" xlink:href="#H"/><use transform="matrix(0.1790123456790121,0,0,0.1790123456790121,64.26543209876536,0)" xlink:href="#I"/><use transform="matrix(0.1790123456790121,0,0,0.1790123456790121,103.469135802469,0)" xlink:href="#M"/><use transform="matrix(0.1790123456790121,0,0,0.1790123456790121,139.27160493827142,0)" xlink:href="#N"/><use transform="matrix(0.1790123456790121,0,0,0.1790123456790121,175.07407407407385,0)" xlink:href="#M"/><use transform="matrix(0.1790123456790121,0,0,0.1790123456790121,210.87654320987627,0)" xlink:href="#O"/><use transform="matrix(0.1790123456790121,0,0,0.1790123456790121,250.0802469135799,0)" xlink:href="#P"/><use transform="matrix(0.1790123456790121,0,0,0.1790123456790121,285.88271604938234,0)" xlink:href="#Q"/><use transform="matrix(0.1790123456790121,0,0,0.1790123456790121,303.78395061728355,0)" xlink:href="#R"/></g><path fill="#fff" d="M135-150c-39-12-60 13-60 57V0H25l-1-190h47c2 13-1 29 3 40 6-28 27-53 61-41v41" id="S"/><path fill="#fff" d="M231 0h-52l-39-155L100 0H48L-1-190h46L77-45c9-52 24-97 36-145h53l37 145 32-145h46" id="T"/><path fill="#fff" d="M137-138c1-29-70-34-71-4 15 46 118 7 119 86 1 83-164 76-172 9l43-7c4 19 20 25 44 25 33 8 57-30 24-41C81-84 22-81 20-136c-2-80 154-74 161-7" id="U"/><path fill="#fff" d="M185-48c-13 30-37 53-82 52C43 2 14-33 14-96s30-98 90-98c62 0 83 45 84 108H66c0 31 8 55 39 56 18 0 30-7 34-22zm-45-69c5-46-57-63-70-21-2 6-4 13-4 21h74" id="V"/><g id="c"><use transform="matrix(0.1790123456790121,0,0,0.1790123456790121,0,0)" xlink:href="#L"/><use transform="matrix(0.1790123456790121,0,0,0.1790123456790121,46.36419753086414,0)" xlink:href="#S"/><use transform="matrix(0.1790123456790121,0,0,0.1790123456790121,71.42592592592584,0)" xlink:href="#I"/><use transform="matrix(0.1790123456790121,0,0,0.1790123456790121,110.62962962962949,0)" xlink:href="#T"/><use transform="matrix(0.1790123456790121,0,0,0.1790123456790121,160.7530864197529,0)" xlink:href="#U"/><use transform="matrix(0.1790123456790121,0,0,0.1790123456790121,196.5555555555553,0)" xlink:href="#V"/><use transform="matrix(0.1790123456790121,0,0,0.1790123456790121,232.3580246913577,0)" xlink:href="#S"/></g><path fill="#fff" d="M199 0l-22-63H83L61 0H9l90-248h61L250 0h-51zm-33-102l-36-108c-10 38-24 72-36 108h72" id="W"/><path fill="#fff" d="M135-194c53 0 70 44 70 98 0 56-19 98-73 100-31 1-45-17-59-34 3 33 2 69 2 105H25l-1-265h48c2 10 0 23 3 31 11-24 29-35 60-35zM114-30c33 0 39-31 40-66 0-38-9-64-40-64-56 0-55 130 0 130" id="X"/><g id="d"><use transform="matrix(0.1790123456790121,0,0,0.1790123456790121,0,0)" xlink:href="#K"/><use transform="matrix(0.1790123456790121,0,0,0.1790123456790121,39.20370370370365,0)" xlink:href="#W"/><use transform="matrix(0.1790123456790121,0,0,0.1790123456790121,85.56790123456778,0)" xlink:href="#X"/><use transform="matrix(0.1790123456790121,0,0,0.1790123456790121,124.77160493827144,0)" xlink:href="#X"/></g><path fill="#fff" d="M24 0v-248h52v208h133V0H24" id="Y"/><path fill="#fff" d="M195-6C206 82 75 100 31 46c-4-6-6-13-8-21l49-6c3 16 16 24 34 25 40 0 42-37 40-79-11 22-30 35-61 35-53 0-70-43-70-97 0-56 18-96 73-97 30 0 46 14 59 34l2-30h47zm-90-29c32 0 41-27 41-63 0-35-9-62-40-62-32 0-39 29-40 63 0 36 9 62 39 62" id="Z"/><path fill="#fff" d="M115-3C79 11 28 4 28-45v-112H4v-33h27l15-45h31v45h36v33H77v99c-1 23 16 31 38 25v30" id="aa"/><g id="e"><use transform="matrix(0.1790123456790121,0,0,0.1790123456790121,0,0)" xlink:href="#Y"/><use transform="matrix(0.1790123456790121,0,0,0.1790123456790121,39.20370370370365,0)" xlink:href="#Q"/><use transform="matrix(0.1790123456790121,0,0,0.1790123456790121,57.104938271604865,0)" xlink:href="#Z"/><use transform="matrix(0.1790123456790121,0,0,0.1790123456790121,96.30864197530852,0)" xlink:href="#O"/><use transform="matrix(0.1790123456790121,0,0,0.1790123456790121,135.51234567901218,0)" xlink:href="#aa"/></g><path fill="#fff" d="M275 0h-61l-44-196L126 0H64L0-248h53L97-49l45-199h58l43 199 44-199h52" id="ab"/><g id="f"><use transform="matrix(0.1790123456790121,0,0,0.1790123456790121,0,0)" xlink:href="#ab"/><use transform="matrix(0.1790123456790121,0,0,0.1790123456790121,58.35802469135795,0)" xlink:href="#P"/><use transform="matrix(0.1790123456790121,0,0,0.1790123456790121,94.16049382716037,0)" xlink:href="#H"/><use transform="matrix(0.1790123456790121,0,0,0.1790123456790121,112.06172839506158,0)" xlink:href="#H"/><use transform="matrix(0.1790123456790121,0,0,0.1790123456790121,129.9629629629628,0)" xlink:href="#V"/><use transform="matrix(0.1790123456790121,0,0,0.1790123456790121,165.76543209876522,0)" xlink:href="#aa"/></g><path fill="#333" d="M63-220v92h138v28H63V0H30v-248h175v28H63" id="ac"/><path fill="#333" d="M114-163C36-179 61-72 57 0H25l-1-190h30c1 12-1 29 2 39 6-27 23-49 58-41v29" id="ad"/><path fill="#333" d="M100-194c62-1 85 37 85 99 1 63-27 99-86 99S16-35 15-95c0-66 28-99 85-99zM99-20c44 1 53-31 53-75 0-43-8-75-51-75s-53 32-53 75 10 74 51 75" id="ae"/><path fill="#333" d="M117-194c89-4 53 116 60 194h-32v-121c0-31-8-49-39-48C34-167 62-67 57 0H25l-1-190h30c1 10-1 24 2 32 11-22 29-35 61-36" id="af"/><path fill="#333" d="M59-47c-2 24 18 29 38 22v24C64 9 27 4 27-40v-127H5v-23h24l9-43h21v43h35v23H59v120" id="ag"/><path fill="#333" d="M100-194c63 0 86 42 84 106H49c0 40 14 67 53 68 26 1 43-12 49-29l28 8c-11 28-37 45-77 45C44 4 14-33 15-96c1-61 26-98 85-98zm52 81c6-60-76-77-97-28-3 7-6 17-6 28h103" id="ah"/><path fill="#333" d="M85-194c31 0 48 13 60 33l-1-100h32l1 261h-30c-2-10 0-23-3-31C134-8 116 4 85 4 32 4 16-35 15-94c0-66 23-100 70-100zm9 24c-40 0-46 34-46 75 0 40 6 74 45 74 42 0 51-32 51-76 0-42-9-74-50-73" id="ai"/><g id="g"><use transform="matrix(0.10493827160493828,0,0,0.10493827160493828,0,0)" xlink:href="#ac"/><use transform="matrix(0.10493827160493828,0,0,0.10493827160493828,22.981481481481485,0)" xlink:href="#ad"/><use transform="matrix(0.10493827160493828,0,0,0.10493827160493828,35.46913580246914,0)" xlink:href="#ae"/><use transform="matrix(0.10493827160493828,0,0,0.10493827160493828,56.45679012345679,0)" xlink:href="#af"/><use transform="matrix(0.10493827160493828,0,0,0.10493827160493828,77.44444444444446,0)" xlink:href="#ag"/><use transform="matrix(0.10493827160493828,0,0,0.10493827160493828,87.93827160493828,0)" xlink:href="#ah"/><use transform="matrix(0.10493827160493828,0,0,0.10493827160493828,108.92592592592594,0)" xlink:href="#af"/><use transform="matrix(0.10493827160493828,0,0,0.10493827160493828,129.9135802469136,0)" xlink:href="#ai"/></g><path fill="#333" d="M212-179c-10-28-35-45-73-45-59 0-87 40-87 99 0 60 29 101 89 101 43 0 62-24 78-52l27 14C228-24 195 4 139 4 59 4 22-46 18-125c-6-104 99-153 187-111 19 9 31 26 39 46" id="aj"/><path fill="#333" d="M84 4C-5 8 30-112 23-190h32v120c0 31 7 50 39 49 72-2 45-101 50-169h31l1 190h-30c-1-10 1-25-2-33-11 22-28 36-60 37" id="ak"/><path fill="#333" d="M135-143c-3-34-86-38-87 0 15 53 115 12 119 90S17 21 10-45l28-5c4 36 97 45 98 0-10-56-113-15-118-90-4-57 82-63 122-42 12 7 21 19 24 35" id="al"/><path fill="#333" d="M210-169c-67 3-38 105-44 169h-31v-121c0-29-5-50-35-48C34-165 62-65 56 0H25l-1-190h30c1 10-1 24 2 32 10-44 99-50 107 0 11-21 27-35 58-36 85-2 47 119 55 194h-31v-121c0-29-5-49-35-48" id="am"/><g id="h"><use transform="matrix(0.10493827160493828,0,0,0.10493827160493828,0,0)" xlink:href="#aj"/><use transform="matrix(0.10493827160493828,0,0,0.10493827160493828,27.179012345679013,0)" xlink:href="#ak"/><use transform="matrix(0.10493827160493828,0,0,0.10493827160493828,48.16666666666667,0)" xlink:href="#al"/><use transform="matrix(0.10493827160493828,0,0,0.10493827160493828,67.05555555555556,0)" xlink:href="#ag"/><use transform="matrix(0.10493827160493828,0,0,0.10493827160493828,77.54938271604938,0)" xlink:href="#ae"/><use transform="matrix(0.10493827160493828,0,0,0.10493827160493828,98.53703703703704,0)" xlink:href="#am"/></g><path fill="#333" d="M185-189c-5-48-123-54-124 2 14 75 158 14 163 119 3 78-121 87-175 55-17-10-28-26-33-46l33-7c5 56 141 63 141-1 0-78-155-14-162-118-5-82 145-84 179-34 5 7 8 16 11 25" id="an"/><path fill="#333" d="M141-36C126-15 110 5 73 4 37 3 15-17 15-53c-1-64 63-63 125-63 3-35-9-54-41-54-24 1-41 7-42 31l-33-3c5-37 33-52 76-52 45 0 72 20 72 64v82c-1 20 7 32 28 27v20c-31 9-61-2-59-35zM48-53c0 20 12 33 32 33 41-3 63-29 60-74-43 2-92-5-92 41" id="ao"/><g id="i"><use transform="matrix(0.10493827160493828,0,0,0.10493827160493828,0,0)" xlink:href="#an"/><use transform="matrix(0.10493827160493828,0,0,0.10493827160493828,25.185185185185187,0)" xlink:href="#ag"/><use transform="matrix(0.10493827160493828,0,0,0.10493827160493828,35.67901234567901,0)" xlink:href="#ao"/><use transform="matrix(0.10493827160493828,0,0,0.10493827160493828,56.66666666666667,0)" xlink:href="#ag"/><use transform="matrix(0.10493827160493828,0,0,0.10493827160493828,67.1604938271605,0)" xlink:href="#ah"/></g><path d="M160-131c35 5 61 23 61 61C221 17 115-2 30 0v-248c76 3 177-17 177 60 0 33-19 50-47 57zm-97-11c50-1 110 9 110-42 0-47-63-36-110-37v79zm0 115c55-2 124 14 124-45 0-56-70-42-124-44v89" id="ap"/><path d="M84 4C-5 8 30-112 23-190h32v120c0 31 7 50 39 49 72-2 45-101 50-169h31l1 190h-30c-1-10 1-25-2-33-11 22-28 36-60 37" id="aq"/><path d="M135-143c-3-34-86-38-87 0 15 53 115 12 119 90S17 21 10-45l28-5c4 36 97 45 98 0-10-56-113-15-118-90-4-57 82-63 122-42 12 7 21 19 24 35" id="ar"/><path d="M24-231v-30h32v30H24zM24 0v-190h32V0H24" id="as"/><path d="M117-194c89-4 53 116 60 194h-32v-121c0-31-8-49-39-48C34-167 62-67 57 0H25l-1-190h30c1 10-1 24 2 32 11-22 29-35 61-36" id="at"/><path d="M100-194c63 0 86 42 84 106H49c0 40 14 67 53 68 26 1 43-12 49-29l28 8c-11 28-37 45-77 45C44 4 14-33 15-96c1-61 26-98 85-98zm52 81c6-60-76-77-97-28-3 7-6 17-6 28h103" id="au"/><g id="j"><use transform="matrix(0.10493827160493828,0,0,0.10493827160493828,0,0)" xlink:href="#ap"/><use transform="matrix(0.10493827160493828,0,0,0.10493827160493828,25.185185185185187,0)" xlink:href="#aq"/><use transform="matrix(0.10493827160493828,0,0,0.10493827160493828,46.17283950617284,0)" xlink:href="#ar"/><use transform="matrix(0.10493827160493828,0,0,0.10493827160493828,65.06172839506173,0)" xlink:href="#as"/><use transform="matrix(0.10493827160493828,0,0,0.10493827160493828,73.35185185185186,0)" xlink:href="#at"/><use transform="matrix(0.10493827160493828,0,0,0.10493827160493828,94.33950617283952,0)" xlink:href="#au"/><use transform="matrix(0.10493827160493828,0,0,0.10493827160493828,115.32716049382717,0)" xlink:href="#ar"/><use transform="matrix(0.10493827160493828,0,0,0.10493827160493828,134.21604938271608,0)" xlink:href="#ar"/></g><path d="M30 0v-248h33v221h125V0H30" id="av"/><path d="M100-194c62-1 85 37 85 99 1 63-27 99-86 99S16-35 15-95c0-66 28-99 85-99zM99-20c44 1 53-31 53-75 0-43-8-75-51-75s-53 32-53 75 10 74 51 75" id="aw"/><path d="M177-190C167-65 218 103 67 71c-23-6-38-20-44-43l32-5c15 47 100 32 89-28v-30C133-14 115 1 83 1 29 1 15-40 15-95c0-56 16-97 71-98 29-1 48 16 59 35 1-10 0-23 2-32h30zM94-22c36 0 50-32 50-73 0-42-14-75-50-75-39 0-46 34-46 75s6 73 46 73" id="ax"/><path d="M96-169c-40 0-48 33-48 73s9 75 48 75c24 0 41-14 43-38l32 2c-6 37-31 61-74 61-59 0-76-41-82-99-10-93 101-131 147-64 4 7 5 14 7 22l-32 3c-4-21-16-35-41-35" id="ay"/><g id="k"><use transform="matrix(0.10493827160493828,0,0,0.10493827160493828,0,0)" xlink:href="#av"/><use transform="matrix(0.10493827160493828,0,0,0.10493827160493828,20.987654320987655,0)" xlink:href="#aw"/><use transform="matrix(0.10493827160493828,0,0,0.10493827160493828,41.97530864197531,0)" xlink:href="#ax"/><use transform="matrix(0.10493827160493828,0,0,0.10493827160493828,62.96296296296297,0)" xlink:href="#as"/><use transform="matrix(0.10493827160493828,0,0,0.10493827160493828,71.25308641975309,0)" xlink:href="#ay"/></g><path fill="#333" d="M160-131c35 5 61 23 61 61C221 17 115-2 30 0v-248c76 3 177-17 177 60 0 33-19 50-47 57zm-97-11c50-1 110 9 110-42 0-47-63-36-110-37v79zm0 115c55-2 124 14 124-45 0-56-70-42-124-44v89" id="az"/><path fill="#333" d="M24 0v-261h32V0H24" id="aA"/><path fill="#333" d="M96-169c-40 0-48 33-48 73s9 75 48 75c24 0 41-14 43-38l32 2c-6 37-31 61-74 61-59 0-76-41-82-99-10-93 101-131 147-64 4 7 5 14 7 22l-32 3c-4-21-16-35-41-35" id="aB"/><path fill="#333" d="M143 0L79-87 56-68V0H24v-261h32v163l83-92h37l-77 82L181 0h-38" id="aC"/><path fill="#333" d="M106-169C34-169 62-67 57 0H25v-261h32l-1 103c12-21 28-36 61-36 89 0 53 116 60 194h-32v-121c2-32-8-49-39-48" id="aD"/><path fill="#333" d="M24-231v-30h32v30H24zM24 0v-190h32V0H24" id="aE"/><g id="l"><use transform="matrix(0.10493827160493828,0,0,0.10493827160493828,0,0)" xlink:href="#az"/><use transform="matrix(0.10493827160493828,0,0,0.10493827160493828,25.185185185185187,0)" xlink:href="#aA"/><use transform="matrix(0.10493827160493828,0,0,0.10493827160493828,33.47530864197531,0)" xlink:href="#ae"/><use transform="matrix(0.10493827160493828,0,0,0.10493827160493828,54.46296296296297,0)" xlink:href="#aB"/><use transform="matrix(0.10493827160493828,0,0,0.10493827160493828,73.35185185185185,0)" xlink:href="#aC"/><use transform="matrix(0.10493827160493828,0,0,0.10493827160493828,92.24074074074073,0)" xlink:href="#aB"/><use transform="matrix(0.10493827160493828,0,0,0.10493827160493828,111.12962962962962,0)" xlink:href="#aD"/><use transform="matrix(0.10493827160493828,0,0,0.10493827160493828,132.11728395061726,0)" xlink:href="#ao"/><use transform="matrix(0.10493827160493828,0,0,0.10493827160493828,153.1049382716049,0)" xlink:href="#aE"/><use transform="matrix(0.10493827160493828,0,0,0.10493827160493828,161.39506172839504,0)" xlink:href="#af"/></g><path fill="#333" d="M30-248c87 1 191-15 191 75 0 78-77 80-158 76V0H30v-248zm33 125c57 0 124 11 124-50 0-59-68-47-124-48v98" id="aF"/><path fill="#333" d="M141 0L90-78 38 0H4l68-98-65-92h35l48 74 47-74h35l-64 92 68 98h-35" id="aG"/><path fill="#333" d="M179-190L93 31C79 59 56 82 12 73V49c39 6 53-20 64-50L1-190h34L92-34l54-156h33" id="aH"/><g id="m"><use transform="matrix(0.10493827160493828,0,0,0.10493827160493828,0,0)" xlink:href="#aF"/><use transform="matrix(0.10493827160493828,0,0,0.10493827160493828,25.185185185185187,0)" xlink:href="#ad"/><use transform="matrix(0.10493827160493828,0,0,0.10493827160493828,37.67283950617284,0)" xlink:href="#ae"/><use transform="matrix(0.10493827160493828,0,0,0.10493827160493828,58.6604938271605,0)" xlink:href="#aG"/><use transform="matrix(0.10493827160493828,0,0,0.10493827160493828,77.54938271604938,0)" xlink:href="#aH"/></g><path fill="#333" d="M266 0h-40l-56-210L115 0H75L2-248h35L96-30l15-64 43-154h32l59 218 59-218h35" id="aI"/><g id="n"><use transform="matrix(0.10493827160493828,0,0,0.10493827160493828,0,0)" xlink:href="#aI"/><use transform="matrix(0.10493827160493828,0,0,0.10493827160493828,34.20987654320988,0)" xlink:href="#ao"/><use transform="matrix(0.10493827160493828,0,0,0.10493827160493828,55.19753086419753,0)" xlink:href="#aA"/><use transform="matrix(0.10493827160493828,0,0,0.10493827160493828,63.48765432098766,0)" xlink:href="#aA"/><use transform="matrix(0.10493827160493828,0,0,0.10493827160493828,71.77777777777779,0)" xlink:href="#ah"/><use transform="matrix(0.10493827160493828,0,0,0.10493827160493828,92.76543209876544,0)" xlink:href="#ag"/></g><path fill="#333" d="M140-251c81 0 123 46 123 126C263-46 219 4 140 4 59 4 17-45 17-125s42-126 123-126zm0 227c63 0 89-41 89-101s-29-99-89-99c-61 0-89 39-89 99S79-25 140-24" id="aJ"/><path fill="#333" d="M16-82v-28h88v28H16" id="aK"/><g id="o"><use transform="matrix(0.10493827160493828,0,0,0.10493827160493828,0,0)" xlink:href="#aJ"/><use transform="matrix(0.10493827160493828,0,0,0.10493827160493828,29.38271604938272,0)" xlink:href="#af"/><use transform="matrix(0.10493827160493828,0,0,0.10493827160493828,50.370370370370374,0)" xlink:href="#aK"/><use transform="matrix(0.10493827160493828,0,0,0.10493827160493828,62.85802469135803,0)" xlink:href="#aj"/><use transform="matrix(0.10493827160493828,0,0,0.10493827160493828,90.03703703703704,0)" xlink:href="#aD"/><use transform="matrix(0.10493827160493828,0,0,0.10493827160493828,111.0246913580247,0)" xlink:href="#ao"/><use transform="matrix(0.10493827160493828,0,0,0.10493827160493828,132.01234567901236,0)" xlink:href="#aE"/><use transform="matrix(0.10493827160493828,0,0,0.10493827160493828,140.30246913580248,0)" xlink:href="#af"/></g><path fill="#333" d="M137 0h-34L2-248h35l83 218 83-218h36" id="aL"/><g id="p"><use transform="matrix(0.10493827160493828,0,0,0.10493827160493828,0,0)" xlink:href="#aL"/><use transform="matrix(0.10493827160493828,0,0,0.10493827160493828,22.351851851851855,0)" xlink:href="#ao"/><use transform="matrix(0.10493827160493828,0,0,0.10493827160493828,43.339506172839506,0)" xlink:href="#aA"/><use transform="matrix(0.10493827160493828,0,0,0.10493827160493828,51.62962962962963,0)" xlink:href="#aE"/><use transform="matrix(0.10493827160493828,0,0,0.10493827160493828,59.91975308641976,0)" xlink:href="#ai"/><use transform="matrix(0.10493827160493828,0,0,0.10493827160493828,80.90740740740742,0)" xlink:href="#ao"/><use transform="matrix(0.10493827160493828,0,0,0.10493827160493828,101.89506172839508,0)" xlink:href="#ag"/><use transform="matrix(0.10493827160493828,0,0,0.10493827160493828,112.3888888888889,0)" xlink:href="#aE"/><use transform="matrix(0.10493827160493828,0,0,0.10493827160493828,120.67901234567903,0)" xlink:href="#ae"/><use transform="matrix(0.10493827160493828,0,0,0.10493827160493828,141.66666666666669,0)" xlink:href="#af"/></g><path fill="#333" d="M127-220V0H93v-220H8v-28h204v28h-85" id="aM"/><g id="q"><use transform="matrix(0.10493827160493828,0,0,0.10493827160493828,0,0)" xlink:href="#aM"/><use transform="matrix(0.10493827160493828,0,0,0.10493827160493828,22.981481481481485,0)" xlink:href="#aG"/></g><g id="r"><use transform="matrix(0.10493827160493828,0,0,0.10493827160493828,0,0)" xlink:href="#az"/><use transform="matrix(0.10493827160493828,0,0,0.10493827160493828,25.185185185185187,0)" xlink:href="#ak"/><use transform="matrix(0.10493827160493828,0,0,0.10493827160493828,46.17283950617284,0)" xlink:href="#aE"/><use transform="matrix(0.10493827160493828,0,0,0.10493827160493828,54.46296296296297,0)" xlink:href="#aA"/><use transform="matrix(0.10493827160493828,0,0,0.10493827160493828,62.75308641975309,0)" xlink:href="#ai"/><use transform="matrix(0.10493827160493828,0,0,0.10493827160493828,83.74074074074075,0)" xlink:href="#ah"/><use transform="matrix(0.10493827160493828,0,0,0.10493827160493828,104.7283950617284,0)" xlink:href="#ad"/></g><path fill="#edf5ff" d="M16-82v-28h88v28H16" id="aN"/><use transform="matrix(0.11111111111111108,0,0,0.11111111111111108,0,0)" xlink:href="#aN" id="s"/><path fill="#edf5ff" d="M160-131c35 5 61 23 61 61C221 17 115-2 30 0v-248c76 3 177-17 177 60 0 33-19 50-47 57zm-97-11c50-1 110 9 110-42 0-47-63-36-110-37v79zm0 115c55-2 124 14 124-45 0-56-70-42-124-44v89" id="aO"/><path fill="#edf5ff" d="M141-36C126-15 110 5 73 4 37 3 15-17 15-53c-1-64 63-63 125-63 3-35-9-54-41-54-24 1-41 7-42 31l-33-3c5-37 33-52 76-52 45 0 72 20 72 64v82c-1 20 7 32 28 27v20c-31 9-61-2-59-35zM48-53c0 20 12 33 32 33 41-3 63-29 60-74-43 2-92-5-92 41" id="aP"/><path fill="#edf5ff" d="M24 0v-261h32V0H24" id="aQ"/><path fill="#edf5ff" d="M117-194c89-4 53 116 60 194h-32v-121c0-31-8-49-39-48C34-167 62-67 57 0H25l-1-190h30c1 10-1 24 2 32 11-22 29-35 61-36" id="aR"/><path fill="#edf5ff" d="M96-169c-40 0-48 33-48 73s9 75 48 75c24 0 41-14 43-38l32 2c-6 37-31 61-74 61-59 0-76-41-82-99-10-93 101-131 147-64 4 7 5 14 7 22l-32 3c-4-21-16-35-41-35" id="aS"/><path fill="#edf5ff" d="M100-194c63 0 86 42 84 106H49c0 40 14 67 53 68 26 1 43-12 49-29l28 8c-11 28-37 45-77 45C44 4 14-33 15-96c1-61 26-98 85-98zm52 81c6-60-76-77-97-28-3 7-6 17-6 28h103" id="aT"/><g id="t"><use transform="matrix(0.11111111111111108,0,0,0.11111111111111108,0,0)" xlink:href="#aO"/><use transform="matrix(0.11111111111111108,0,0,0.11111111111111108,26.666666666666657,0)" xlink:href="#aP"/><use transform="matrix(0.11111111111111108,0,0,0.11111111111111108,48.88888888888887,0)" xlink:href="#aQ"/><use transform="matrix(0.11111111111111108,0,0,0.11111111111111108,57.66666666666665,0)" xlink:href="#aP"/><use transform="matrix(0.11111111111111108,0,0,0.11111111111111108,79.88888888888886,0)" xlink:href="#aR"/><use transform="matrix(0.11111111111111108,0,0,0.11111111111111108,102.11111111111107,0)" xlink:href="#aS"/><use transform="matrix(0.11111111111111108,0,0,0.11111111111111108,122.11111111111104,0)" xlink:href="#aT"/></g><path fill="#edf5ff" d="M127-220V0H93v-220H8v-28h204v28h-85" id="aU"/><path fill="#edf5ff" d="M141 0L90-78 38 0H4l68-98-65-92h35l48 74 47-74h35l-64 92 68 98h-35" id="aV"/><g id="u"><use transform="matrix(0.11111111111111108,0,0,0.11111111111111108,0,0)" xlink:href="#aU"/><use transform="matrix(0.11111111111111108,0,0,0.11111111111111108,24.333333333333325,0)" xlink:href="#aV"/></g><use transform="matrix(0.11111111111111108,0,0,0.11111111111111108,0,0)" xlink:href="#aN" id="v"/><path fill="#edf5ff" d="M185-189c-5-48-123-54-124 2 14 75 158 14 163 119 3 78-121 87-175 55-17-10-28-26-33-46l33-7c5 56 141 63 141-1 0-78-155-14-162-118-5-82 145-84 179-34 5 7 8 16 11 25" id="aW"/><path fill="#edf5ff" d="M24-231v-30h32v30H24zM24 0v-190h32V0H24" id="aX"/><path fill="#edf5ff" d="M177-190C167-65 218 103 67 71c-23-6-38-20-44-43l32-5c15 47 100 32 89-28v-30C133-14 115 1 83 1 29 1 15-40 15-95c0-56 16-97 71-98 29-1 48 16 59 35 1-10 0-23 2-32h30zM94-22c36 0 50-32 50-73 0-42-14-75-50-75-39 0-46 34-46 75s6 73 46 73" id="aY"/><g id="w"><use transform="matrix(0.11111111111111108,0,0,0.11111111111111108,0,0)" xlink:href="#aW"/><use transform="matrix(0.11111111111111108,0,0,0.11111111111111108,26.666666666666657,0)" xlink:href="#aX"/><use transform="matrix(0.11111111111111108,0,0,0.11111111111111108,35.44444444444443,0)" xlink:href="#aY"/><use transform="matrix(0.11111111111111108,0,0,0.11111111111111108,57.66666666666665,0)" xlink:href="#aR"/></g><path fill="#edf5ff" d="M84 4C-5 8 30-112 23-190h32v120c0 31 7 50 39 49 72-2 45-101 50-169h31l1 190h-30c-1-10 1-25-2-33-11 22-28 36-60 37" id="aZ"/><path fill="#edf5ff" d="M115-194c53 0 69 39 70 98 0 66-23 100-70 100C84 3 66-7 56-30L54 0H23l1-261h32v101c10-23 28-34 59-34zm-8 174c40 0 45-34 45-75 0-40-5-75-45-74-42 0-51 32-51 76 0 43 10 73 51 73" id="ba"/><path fill="#edf5ff" d="M210-169c-67 3-38 105-44 169h-31v-121c0-29-5-50-35-48C34-165 62-65 56 0H25l-1-190h30c1 10-1 24 2 32 10-44 99-50 107 0 11-21 27-35 58-36 85-2 47 119 55 194h-31v-121c0-29-5-49-35-48" id="bb"/><path fill="#edf5ff" d="M59-47c-2 24 18 29 38 22v24C64 9 27 4 27-40v-127H5v-23h24l9-43h21v43h35v23H59v120" id="bc"/><g id="x"><use transform="matrix(0.11111111111111108,0,0,0.11111111111111108,0,0)" xlink:href="#aW"/><use transform="matrix(0.11111111111111108,0,0,0.11111111111111108,26.666666666666657,0)" xlink:href="#aZ"/><use transform="matrix(0.11111111111111108,0,0,0.11111111111111108,48.88888888888887,0)" xlink:href="#ba"/><use transform="matrix(0.11111111111111108,0,0,0.11111111111111108,71.11111111111109,0)" xlink:href="#bb"/><use transform="matrix(0.11111111111111108,0,0,0.11111111111111108,104.3333333333333,0)" xlink:href="#aX"/><use transform="matrix(0.11111111111111108,0,0,0.11111111111111108,113.11111111111107,0)" xlink:href="#bc"/></g><g id="y"><use transform="matrix(0.11111111111111108,0,0,0.11111111111111108,0,0)" xlink:href="#aU"/><use transform="matrix(0.11111111111111108,0,0,0.11111111111111108,24.333333333333325,0)" xlink:href="#aV"/></g><path fill="#edf5ff" d="M30 0v-248h33v221h125V0H30" id="bd"/><path fill="#edf5ff" d="M100-194c62-1 85 37 85 99 1 63-27 99-86 99S16-35 15-95c0-66 28-99 85-99zM99-20c44 1 53-31 53-75 0-43-8-75-51-75s-53 32-53 75 10 74 51 75" id="be"/><path fill="#edf5ff" d="M143 0L79-87 56-68V0H24v-261h32v163l83-92h37l-77 82L181 0h-38" id="bf"/><g id="z"><use transform="matrix(0.11111111111111108,0,0,0.11111111111111108,0,0)" xlink:href="#bd"/><use transform="matrix(0.11111111111111108,0,0,0.11111111111111108,22.222222222222214,0)" xlink:href="#be"/><use transform="matrix(0.11111111111111108,0,0,0.11111111111111108,44.44444444444443,0)" xlink:href="#aS"/><use transform="matrix(0.11111111111111108,0,0,0.11111111111111108,64.44444444444443,0)" xlink:href="#bf"/></g><path fill="#edf5ff" d="M205 0l-28-72H64L36 0H1l101-248h38L239 0h-34zm-38-99l-47-123c-12 45-31 82-46 123h93" id="bg"/><path fill="#edf5ff" d="M135-143c-3-34-86-38-87 0 15 53 115 12 119 90S17 21 10-45l28-5c4 36 97 45 98 0-10-56-113-15-118-90-4-57 82-63 122-42 12 7 21 19 24 35" id="bh"/><g id="A"><use transform="matrix(0.11111111111111108,0,0,0.11111111111111108,0,0)" xlink:href="#bg"/><use transform="matrix(0.11111111111111108,0,0,0.11111111111111108,26.666666666666657,0)" xlink:href="#bh"/><use transform="matrix(0.11111111111111108,0,0,0.11111111111111108,46.66666666666665,0)" xlink:href="#bh"/><use transform="matrix(0.11111111111111108,0,0,0.11111111111111108,66.66666666666664,0)" xlink:href="#aT"/><use transform="matrix(0.11111111111111108,0,0,0.11111111111111108,88.88888888888886,0)" xlink:href="#bc"/><use transform="matrix(0.11111111111111108,0,0,0.11111111111111108,99.99999999999997,0)" xlink:href="#bh"/></g><path fill="#edf5ff" d="M233-177c-1 41-23 64-60 70L243 0h-38l-65-103H63V0H30v-248c88 3 205-21 203 71zM63-129c60-2 137 13 137-47 0-61-80-42-137-45v92" id="bi"/><path fill="#edf5ff" d="M85-194c31 0 48 13 60 33l-1-100h32l1 261h-30c-2-10 0-23-3-31C134-8 116 4 85 4 32 4 16-35 15-94c0-66 23-100 70-100zm9 24c-40 0-46 34-46 75 0 40 6 74 45 74 42 0 51-32 51-76 0-42-9-74-50-73" id="bj"/><g id="B"><use transform="matrix(0.11111111111111108,0,0,0.11111111111111108,0,0)" xlink:href="#bi"/><use transform="matrix(0.11111111111111108,0,0,0.11111111111111108,28.777777777777768,0)" xlink:href="#aT"/><use transform="matrix(0.11111111111111108,0,0,0.11111111111111108,50.999999999999986,0)" xlink:href="#bj"/><use transform="matrix(0.11111111111111108,0,0,0.11111111111111108,73.2222222222222,0)" xlink:href="#aT"/><use transform="matrix(0.11111111111111108,0,0,0.11111111111111108,95.44444444444441,0)" xlink:href="#aT"/><use transform="matrix(0.11111111111111108,0,0,0.11111111111111108,117.66666666666663,0)" xlink:href="#bb"/></g><path d="M30-248c87 1 191-15 191 75 0 78-77 80-158 76V0H30v-248zm33 125c57 0 124 11 124-50 0-59-68-47-124-48v98" id="bk"/><path d="M114-163C36-179 61-72 57 0H25l-1-190h30c1 12-1 29 2 39 6-27 23-49 58-41v29" id="bl"/><path d="M108 0H70L1-190h34L89-25l56-165h34" id="bm"/><path d="M141-36C126-15 110 5 73 4 37 3 15-17 15-53c-1-64 63-63 125-63 3-35-9-54-41-54-24 1-41 7-42 31l-33-3c5-37 33-52 76-52 45 0 72 20 72 64v82c-1 20 7 32 28 27v20c-31 9-61-2-59-35zM48-53c0 20 12 33 32 33 41-3 63-29 60-74-43 2-92-5-92 41" id="bn"/><path d="M59-47c-2 24 18 29 38 22v24C64 9 27 4 27-40v-127H5v-23h24l9-43h21v43h35v23H59v120" id="bo"/><g id="C"><use transform="matrix(0.10493827160493828,0,0,0.10493827160493828,0,0)" xlink:href="#bk"/><use transform="matrix(0.10493827160493828,0,0,0.10493827160493828,25.185185185185187,0)" xlink:href="#bl"/><use transform="matrix(0.10493827160493828,0,0,0.10493827160493828,37.67283950617284,0)" xlink:href="#as"/><use transform="matrix(0.10493827160493828,0,0,0.10493827160493828,45.96296296296296,0)" xlink:href="#bm"/><use transform="matrix(0.10493827160493828,0,0,0.10493827160493828,64.85185185185185,0)" xlink:href="#bn"/><use transform="matrix(0.10493827160493828,0,0,0.10493827160493828,85.8395061728395,0)" xlink:href="#bo"/><use transform="matrix(0.10493827160493828,0,0,0.10493827160493828,96.33333333333333,0)" xlink:href="#au"/></g><path d="M194 0L95-120 63-95V0H30v-248h33v124l119-124h40L117-140 236 0h-42" id="bp"/><path d="M179-190L93 31C79 59 56 82 12 73V49c39 6 53-20 64-50L1-190h34L92-34l54-156h33" id="bq"/><g id="D"><use transform="matrix(0.10493827160493828,0,0,0.10493827160493828,0,0)" xlink:href="#bp"/><use transform="matrix(0.10493827160493828,0,0,0.10493827160493828,25.185185185185187,0)" xlink:href="#au"/><use transform="matrix(0.10493827160493828,0,0,0.10493827160493828,46.17283950617284,0)" xlink:href="#bq"/><use transform="matrix(0.10493827160493828,0,0,0.10493827160493828,65.06172839506173,0)" xlink:href="#ar"/></g><path fill="#edf5ff" d="M140-251c81 0 123 46 123 126C263-53 228-8 163 1c7 30 30 48 69 40v23c-55 16-95-15-103-61C56-3 17-48 17-125c0-80 42-126 123-126zm0 227c63 0 89-41 89-101s-29-99-89-99c-61 0-89 39-89 99S79-25 140-24" id="br"/><path fill="#edf5ff" d="M114-163C36-179 61-72 57 0H25l-1-190h30c1 12-1 29 2 39 6-27 23-49 58-41v29" id="bs"/><path fill="#edf5ff" d="M179-190L93 31C79 59 56 82 12 73V49c39 6 53-20 64-50L1-190h34L92-34l54-156h33" id="bt"/><g id="E"><use transform="matrix(0.11111111111111108,0,0,0.11111111111111108,0,0)" xlink:href="#br"/><use transform="matrix(0.11111111111111108,0,0,0.11111111111111108,31.1111111111111,0)" xlink:href="#aZ"/><use transform="matrix(0.11111111111111108,0,0,0.11111111111111108,53.333333333333314,0)" xlink:href="#aT"/><use transform="matrix(0.11111111111111108,0,0,0.11111111111111108,75.55555555555553,0)" xlink:href="#bs"/><use transform="matrix(0.11111111111111108,0,0,0.11111111111111108,88.77777777777774,0)" xlink:href="#bt"/></g><path fill="#edf5ff" d="M232-93c-1 65-40 97-104 97C67 4 28-28 28-90v-158h33c8 89-33 224 67 224 102 0 64-133 71-224h33v155" id="bu"/><path fill="#edf5ff" d="M140-251c81 0 123 46 123 126C263-46 219 4 140 4 59 4 17-45 17-125s42-126 123-126zm0 227c63 0 89-41 89-101s-29-99-89-99c-61 0-89 39-89 99S79-25 140-24" id="bv"/><g id="F"><use transform="matrix(0.11111111111111108,0,0,0.11111111111111108,0,0)" xlink:href="#bu"/><use transform="matrix(0.11111111111111108,0,0,0.11111111111111108,28.777777777777768,0)" xlink:href="#aU"/><use transform="matrix(0.11111111111111108,0,0,0.11111111111111108,53.11111111111109,0)" xlink:href="#aV"/><use transform="matrix(0.11111111111111108,0,0,0.11111111111111108,73.11111111111109,0)" xlink:href="#bv"/><use transform="matrix(0.11111111111111108,0,0,0.11111111111111108,104.22222222222219,0)" xlink:href="#bh"/></g></defs></g></svg>